<svg xmlns="http://www.w3.org/2000/svg" viewBox="0 0 576 576"><defs><style>.cls-1{fill:#c1e3ff;}</style></defs><title>logAsset 1</title><g id="Layer_2" data-name="Layer 2"><g id="Capa_1" data-name="Capa 1"><g id="Share"><path class="cls-1" d="M504,468a36,36,0,0,1-36,36H108a36,36,0,0,1-36-36V108a36,36,0,0,1,36-36H216L336,0H72A72,72,0,0,0,0,72V504a72,72,0,0,0,72,72H504a72,72,0,0,0,72-72V207l-72,54V468ZM395.42,70.56c-.36,3.64-.54,3-.61-.22-17.75-.14-241.63,17.64-251,292.93,2.66,13.79,48.28-181.76,252.07-222.19C396,144,396,216,396,216L576,108,396,0c.58-.36-1.37,57.24-1.19,70.34C396.14,70.38,396.61,70.45,395.42,70.56Zm-251,279.14c-.54,6.26-.58,9.9-.58,9.9C143.93,356.11,144.4,353.12,144.47,349.7Z"/></g></g></g></svg>