<svg xmlns="http://www.w3.org/2000/svg" viewBox="0 0 980 739.2"><defs><style>.cls-1{fill:#c1e3ff;}</style></defs><title>msgAsset 1</title><g id="Layer_2" data-name="Layer 2"><g id="Layer_1-2" data-name="Layer 1"><path class="cls-1" d="M246.4,249.2h0Z"/><path class="cls-1" d="M893.2,0H86.8A86.91,86.91,0,0,0,0,86.8V652.4a86.91,86.91,0,0,0,86.8,86.8H893.2A86.91,86.91,0,0,0,980,652.4V86.8A86.91,86.91,0,0,0,893.2,0ZM870.1,61.6,507.8,423.9a25.35,25.35,0,0,1-35.7,0L109.8,61.6Zm48.2,590.8a25.22,25.22,0,0,1-25.2,25.2H86.8a25.22,25.22,0,0,1-25.2-25.2V100.3l367.1,367a86.85,86.85,0,0,0,122.8,0l366.8-367V652.4Z"/></g></g></svg>